<svg width="16" height="16" viewBox="0 0 16 16" fill="none" xmlns="http://www.w3.org/2000/svg">
<path d="M3.19477 4.9513L2.31277 3.77943L3.82854 2.27581L5.00346 3.17087L6.74054 2.45892L6.91877 1L9.08554 1.00108L9.27508 2.46053L11.0428 3.19457L12.2113 2.30543L13.7109 3.81066L13 5L13.5602 6.72527L14 6.90783V9.07224L13.5688 9.24996L13.0199 11.0672L13.6991 12.2055L12.1812 13.7177L11.0111 12.8345L9.26969 13.5502L9.08231 15L6.915 14.9995L6.72115 13.5454L4.96954 12.8178L3.78331 13.6908L2.27723 12.1743L3.16515 11.0099L2.44361 9.2645L1 9.07547L1.00269 6.90568L2.45061 6.71611L3.19477 4.9513Z" fill="white"/>
<mask id="mask0_3908_6339" style="mask-type:alpha" maskUnits="userSpaceOnUse" x="0" y="0" width="16" height="16">
<path d="M16 0H0V16H16V12L14.2 11L12.7 12.5L11 11V5L12.7 3.5L13.8 4.5L16 4V3V0Z" fill="white"/>
</mask>
<g mask="url(#mask0_3908_6339)">
<path d="M3.19477 4.9513L2.31277 3.77943L3.82854 2.27581L5.00346 3.17087L6.74054 2.45892L6.91877 1L9.08554 1.00108L9.27508 2.46053L11.0428 3.19457L12.2113 2.30543L13.7109 3.81066L12.816 4.95507L13.5602 6.72527L14.9968 6.90783L15 9.07224L13.5688 9.24996L12.8359 11.0223L13.6991 12.2055L12.1812 13.7177L11.0111 12.8345L9.26969 13.5502L9.08231 15L6.915 14.9995L6.72115 13.5454L4.96954 12.8178L3.78331 13.6908L2.27723 12.1743L3.16515 11.0099L2.44361 9.2645L1 9.07547L1.00269 6.90568L2.45061 6.71611L3.19477 4.9513Z" fill="white" stroke="#201E1E" stroke-miterlimit="10" stroke-linejoin="round"/>
</g>
<path d="M16 8L13 5V6.99998L7 6.99998V8.99998L13 8.99998V11L16 8Z" fill="#201E1E"/>
</svg>
