<svg width="16" height="16" viewBox="0 0 16 16" fill="none" xmlns="http://www.w3.org/2000/svg">
<path d="M10.7458 6.25789L11.2498 5.58824L10.3837 4.72904L9.71231 5.2405L8.71969 4.83367L8.61785 4L7.37969 4.00062L7.27138 4.83459L6.26123 5.25404L5.59354 4.74596L4.73662 5.60609L5.248 6.26004L4.82277 7.27158L4.00185 7.3759L4 8.61271L4.81785 8.71426L5.23662 9.72704L4.74338 10.4031L5.61077 11.2673L6.27938 10.7626L7.27446 11.1716L7.38154 12L8.62 11.9997L8.73077 11.1688L9.73169 10.753L10.4095 11.2519L11.2702 10.3853L10.7628 9.71996L11.1751 8.72257L12 8.61456L11.9985 7.37467L11.1711 7.26635L10.7458 6.25789Z" fill="white"/>
<mask id="mask0_3902_6402" style="mask-type:alpha" maskUnits="userSpaceOnUse" x="0" y="0" width="16" height="16">
<path d="M0 0H16V16H0V10H5V6H0V0Z" fill="white"/>
</mask>
<g mask="url(#mask0_3902_6402)">
<path d="M12.8052 4.9513L13.6872 3.77943L12.1715 2.27581L10.9965 3.17087L9.25946 2.45892L9.08123 1L6.91446 1.00108L6.72492 2.46053L4.95715 3.19457L3.78869 2.30543L2.28908 3.81066L3.184 4.95507L2.43985 6.72527L1.00323 6.90783L1 9.07224L2.43123 9.24996L3.16408 11.0223L2.30092 12.2055L3.81885 13.7177L4.98892 12.8345L6.73031 13.5502L6.91769 15L9.085 14.9995L9.27885 13.5454L11.0305 12.8178L12.2167 13.6908L13.7228 12.1743L12.8348 11.0099L13.5564 9.2645L15 9.07547L14.9973 6.90568L13.5494 6.71611L12.8052 4.9513Z" fill="white" stroke="#201E1E" stroke-miterlimit="10" stroke-linejoin="round"/>
</g>
<path d="M9 8L6 5V6.99998L0 6.99998V8.99998L6 8.99998V11L9 8Z" fill="#201E1E"/>
</svg>
