<?xml version="1.0" encoding="utf-8"?>
<!-- Generator: Adobe Illustrator 19.2.1, SVG Export Plug-In . SVG Version: 6.00 Build 0)  -->
<svg version="1.1" id="Ebene_1" xmlns="http://www.w3.org/2000/svg" xmlns:xlink="http://www.w3.org/1999/xlink" x="0px" y="0px"
	 viewBox="0 0 16 16" style="enable-background:new 0 0 16 16;" xml:space="preserve">
<style type="text/css">
	.st0{enable-background:new    ;}
	.st1{fill:#F2CF32;}
</style>
<g id="XMLID_504_" class="st0">
	<g id="g3_7_">
		<polygon id="polygon5_7_" class="st1" points="4.2,14.9 13,9.8 16,14.9 		"/>
		<polyline id="polyline7_7_" class="st1" points="8,1.1 13.9,11.3 5,6.2 		"/>
		<polyline id="polyline9_7_" class="st1" points="0,14.9 5.9,4.7 5.9,14.9 		"/>
	</g>
</g>
<path id="XMLID_505_" d="M7.7,5.3C6,6.9,6,9.5,7.7,11.1c0.3,0.3,0.7,0.3,0.9,0c0.3-0.3,0.3-0.7,0-0.9c-1.1-1.1-1.1-2.9,0-4
	c1.1-1.1,2.9-1.1,4,0c0.9,0.9,1.1,2.4,0.4,3.5l-1-1l-1.2,4.2l4.2-1.2l-1.1-1.1c0.5-0.7,0.8-1.6,0.8-2.4c0-1.1-0.4-2.1-1.2-2.9
	C11.9,3.7,9.3,3.7,7.7,5.3z"/>
</svg>
